<svg width="57" height="33" viewBox="0 0 57 33" fill="none" xmlns="http://www.w3.org/2000/svg">
  <title>British Medical Journal logo</title>
  <path d="M45.0044 32.955C44.6896 32.955 44.4648 32.7302 44.4648 32.4155C44.4648 32.3256 44.5098 32.2357 44.5548 32.1458L48.5561 26.5259C50.4894 23.7384 50.8041 23.4687 50.8041 20.6362V1.07902C50.8041 0.49455 51.2986 0 51.8831 0H55.1202C55.7046 0 56.1992 0.49455 56.1992 1.07902V1.84332V21.3106C56.1992 24.188 55.3 25.4469 53.5016 28.0095L50.1297 32.5954C49.9499 32.8202 49.6801 33 49.3654 33H45.0044V32.955Z" fill="#2A6EBB"/>
  <path d="M14.7466 12.0041C14.7466 11.8692 14.8815 11.7793 14.8815 11.7793C16.0054 11.1049 17.6689 9.44142 17.6689 6.65395C17.6689 2.11308 13.7575 0 10.1608 0H1.07902C0.49455 0 0 0.49455 0 1.07902V23.3338C0 23.9183 0.49455 24.4128 1.07902 24.4128H10.7902C14.4768 24.4128 18.4332 22.2548 18.4332 17.8937C18.4332 14.4319 16.1403 12.8134 14.9264 12.1839C14.8815 12.2289 14.7466 12.1839 14.7466 12.0041ZM5.39509 4.63079C5.39509 4.31608 5.61989 4.09128 5.9346 4.09128H8.18256C9.62125 4.09128 12.049 4.406 12.049 6.96867C12.049 9.44142 9.39646 9.80109 8.31744 9.80109H5.9346C5.61989 9.80109 5.39509 9.57629 5.39509 9.26158V4.63079ZM10.2956 20.2316C9.80109 20.3215 9.03678 20.3665 8.45232 20.3665H5.9346C5.61989 20.3665 5.39509 20.1417 5.39509 19.827V15.0163C5.39509 14.7016 5.61989 14.4768 5.9346 14.4768H8.58719C9.08174 14.4768 9.84605 14.5218 10.2956 14.6117C10.7452 14.7016 12.6335 15.1512 12.6335 17.5341C12.6335 19.4673 10.7452 20.1417 10.2956 20.2316Z" fill="#2A6EBB"/>
  <path d="M38.5291 9.93597C38.5741 9.84605 38.664 9.80109 38.7539 9.80109C38.8888 9.80109 39.0237 9.93597 39.0237 10.0708V23.3787C39.0237 23.9632 39.5182 24.4578 40.1027 24.4578H43.3398C43.9242 24.4578 44.4188 23.9632 44.4188 23.3787V1.12398C44.4188 0.539509 43.9242 0.0449593 43.3398 0.0449593H39.8779C39.5182 0.0449593 39.1586 0.224796 38.9787 0.53951L33.5387 8.18256C33.4937 8.22752 33.4038 8.27248 33.3139 8.27248C33.224 8.27248 33.1341 8.22752 33.0891 8.18256L27.649 0.494551C27.4692 0.224796 27.1095 0 26.7499 0H23.3779C22.7035 0 22.209 0.449591 22.209 1.12398V23.3787C22.209 23.9632 22.7035 24.4578 23.288 24.4578H26.5251C27.1095 24.4578 27.6041 23.9632 27.6041 23.3787V10.0708C27.6041 9.93597 27.739 9.80109 27.8738 9.80109C27.9638 9.80109 28.0537 9.84605 28.0986 9.93597L32.1 15.6008C32.2798 15.8706 32.5945 16.0504 32.9542 16.0504H33.5836C33.9433 16.0504 34.258 15.8706 34.4379 15.6008L38.5291 9.93597Z" fill="#2A6EBB"/>
</svg>