<svg width="142" height="33" viewBox="0 0 182 33" fill="none" xmlns="http://www.w3.org/2000/svg">
  <title>BMJ Learning logo</title>
  <path d="M45.0044 32.955C44.6896 32.955 44.4648 32.7302 44.4648 32.4155C44.4648 32.3256 44.5098 32.2357 44.5548 32.1458L48.5561 26.5259C50.4894 23.7384 50.8041 23.4687 50.8041 20.6362V1.07902C50.8041 0.49455 51.2986 0 51.8831 0H55.1202C55.7046 0 56.1992 0.49455 56.1992 1.07902V1.84332V21.3106C56.1992 24.188 55.3 25.4469 53.5016 28.0095L50.1297 32.5954C49.9499 32.8202 49.6801 33 49.3654 33H45.0044V32.955Z" fill="#2A6EBB"/>
  <path d="M14.7466 12.0041C14.7466 11.8692 14.8815 11.7793 14.8815 11.7793C16.0054 11.1049 17.6689 9.44142 17.6689 6.65395C17.6689 2.11308 13.7575 0 10.1608 0H1.07902C0.49455 0 0 0.49455 0 1.07902V23.3338C0 23.9183 0.49455 24.4128 1.07902 24.4128H10.7902C14.4768 24.4128 18.4332 22.2548 18.4332 17.8937C18.4332 14.4319 16.1403 12.8134 14.9264 12.1839C14.8815 12.2289 14.7466 12.1839 14.7466 12.0041ZM5.39509 4.63079C5.39509 4.31608 5.61989 4.09128 5.9346 4.09128H8.18256C9.62125 4.09128 12.049 4.406 12.049 6.96867C12.049 9.44142 9.39646 9.80109 8.31744 9.80109H5.9346C5.61989 9.80109 5.39509 9.57629 5.39509 9.26158V4.63079ZM10.2956 20.2316C9.80109 20.3215 9.03678 20.3665 8.45232 20.3665H5.9346C5.61989 20.3665 5.39509 20.1417 5.39509 19.827V15.0163C5.39509 14.7016 5.61989 14.4768 5.9346 14.4768H8.58719C9.08174 14.4768 9.84605 14.5218 10.2956 14.6117C10.7452 14.7016 12.6335 15.1512 12.6335 17.5341C12.6335 19.4673 10.7452 20.1417 10.2956 20.2316Z" fill="#2A6EBB"/>
  <path d="M38.5291 9.93597C38.5741 9.84605 38.664 9.80109 38.7539 9.80109C38.8888 9.80109 39.0237 9.93597 39.0237 10.0708V23.3787C39.0237 23.9632 39.5182 24.4578 40.1027 24.4578H43.3398C43.9242 24.4578 44.4188 23.9632 44.4188 23.3787V1.12398C44.4188 0.539509 43.9242 0.0449593 43.3398 0.0449593H39.8779C39.5182 0.0449593 39.1586 0.224796 38.9787 0.53951L33.5387 8.18256C33.4937 8.22752 33.4038 8.27248 33.3139 8.27248C33.224 8.27248 33.1341 8.22752 33.0891 8.18256L27.649 0.494551C27.4692 0.224796 27.1095 0 26.7499 0H23.3779C22.7035 0 22.209 0.449591 22.209 1.12398V23.3787C22.209 23.9632 22.7035 24.4578 23.288 24.4578H26.5251C27.1095 24.4578 27.6041 23.9632 27.6041 23.3787V10.0708C27.6041 9.93597 27.739 9.80109 27.8738 9.80109C27.9638 9.80109 28.0537 9.84605 28.0986 9.93597L32.1 15.6008C32.2798 15.8706 32.5945 16.0504 32.9542 16.0504H33.5836C33.9433 16.0504 34.258 15.8706 34.4379 15.6008L38.5291 9.93597Z" fill="#2A6EBB"/>
  <path d="M66 23.2412V1H68.6706V20.9461H78.9775V23.2412H66Z" fill="#686A6F"/>
  <path d="M83.0689 15.1468C83.0689 17.1497 83.5279 18.7354 84.4459 19.8621C85.3639 20.9887 86.6992 21.5729 88.4101 21.5729C89.4116 21.5729 90.2461 21.3226 90.9555 20.8218C91.6649 20.3211 92.2074 19.7369 92.6246 19.0275L94.3355 20.1542C93.7513 21.1557 93.0002 21.9902 92.0822 22.6579C91.1641 23.3255 89.9123 23.6594 88.3684 23.6594C87.1582 23.6594 86.0733 23.4924 85.1135 23.1169C84.1538 22.7413 83.3192 22.1989 82.6516 21.5312C81.9839 20.8218 81.4415 19.9455 81.0659 18.9023C80.6904 17.8591 80.5234 16.649 80.5234 15.272C80.5234 14.0201 80.6903 12.8517 81.0242 11.8502C81.358 10.8488 81.8587 9.97247 82.4429 9.26309C83.0689 8.55371 83.82 7.96952 84.6963 7.59396C85.5726 7.21841 86.5323 7.00977 87.6172 7.00977C88.7856 7.00977 89.8288 7.21841 90.7051 7.59396C91.5814 8.01125 92.3325 8.55371 92.875 9.26309C93.4592 9.97247 93.8765 10.8488 94.1686 11.8502C94.4607 12.8517 94.5859 13.9784 94.5859 15.1885H83.0689V15.1468ZM91.7484 13.1021C91.7066 12.3927 91.5814 11.8085 91.3311 11.2661C91.0807 10.7236 90.7886 10.3063 90.413 9.97247C90.0375 9.63865 89.6202 9.38828 89.1195 9.22136C88.6187 9.05445 88.1597 8.971 87.659 8.971C86.574 8.971 85.656 9.30482 84.9049 9.93075C84.1538 10.5567 83.6113 11.6416 83.3192 13.1021H91.7484Z" fill="#686A6F"/>
  <path d="M107.102 23.2408L106.977 21.8638C106.434 22.4063 105.766 22.8653 105.057 23.1574C104.348 23.4495 103.555 23.6164 102.679 23.6164C101.969 23.6164 101.302 23.4912 100.676 23.2826C100.008 23.0739 99.4238 22.7401 98.923 22.3645C98.4223 21.9473 98.005 21.4465 97.7129 20.8206C97.4208 20.1947 97.2539 19.4853 97.2539 18.6507C97.2539 17.5241 97.546 16.5643 98.1719 15.8549C98.7979 15.1038 99.549 14.5196 100.509 14.1023C101.468 13.685 102.47 13.3512 103.597 13.1843C104.723 13.0174 105.85 12.9339 106.893 12.9339V12.7253C106.893 11.39 106.601 10.4302 106.059 9.84605C105.474 9.26185 104.682 8.96975 103.597 8.96975C102.845 8.96975 102.178 9.13667 101.594 9.47049C100.968 9.80432 100.467 10.2216 100.05 10.7641L98.2554 9.51222C98.8813 8.63593 99.6741 8.01 100.55 7.59272C101.427 7.17544 102.553 6.9668 103.889 6.9668C105.683 6.9668 107.06 7.42581 108.062 8.34383C109.063 9.26185 109.564 10.7641 109.564 12.9339V23.3243H107.102V23.2408ZM106.851 14.9369C106.1 14.9786 105.349 15.0204 104.515 15.1038C103.68 15.1873 102.929 15.3542 102.22 15.6045C101.51 15.8549 100.926 16.2305 100.467 16.7312C100.008 17.232 99.7993 17.8579 99.7993 18.6507C99.7993 19.1515 99.8828 19.6105 100.091 19.9443C100.3 20.3198 100.55 20.6119 100.843 20.8206C101.135 21.071 101.468 21.2379 101.844 21.3213C102.22 21.4048 102.553 21.4882 102.929 21.4882C103.722 21.4882 104.431 21.3213 105.099 20.9875C105.766 20.6537 106.351 20.2781 106.851 19.8191V14.9369Z" fill="#686A6F"/>
  <path d="M113.949 23.2415V7.34306H116.286L116.495 8.76183C116.912 8.30282 117.454 7.88553 118.122 7.50998C118.79 7.13442 119.457 6.92578 120.167 6.92578C120.667 6.92578 121.126 6.96751 121.502 7.00924C121.919 7.09269 122.211 7.13442 122.462 7.21788L122.003 9.59639C121.46 9.34602 120.751 9.22084 119.916 9.22084C119.29 9.22084 118.665 9.38775 118.08 9.7633C117.496 10.1389 116.995 10.4727 116.578 10.8482V23.2415H113.949Z" fill="#686A6F"/>
  <path d="M124.668 23.2415V7.34306H127.046L127.213 8.59491C127.839 8.09417 128.632 7.71862 129.508 7.38479C130.385 7.0927 131.303 6.92578 132.263 6.92578C134.432 6.92578 135.976 7.46825 136.894 8.55319C137.812 9.63812 138.23 11.2238 138.23 13.3519V23.2833H135.643V13.2685C135.643 11.9332 135.35 10.89 134.724 10.1389C134.14 9.38775 133.139 9.0122 131.804 9.0122C130.969 9.0122 130.134 9.17911 129.3 9.55466C128.507 9.93022 127.798 10.3475 127.213 10.7648V23.2415H124.668Z" fill="#686A6F"/>
  <path d="M143.711 4.79727C143.252 4.79727 142.835 4.63036 142.501 4.25481C142.167 3.87925 142 3.42024 142 2.9195C142 2.41876 142.167 1.95975 142.501 1.5842C142.835 1.20864 143.252 1 143.711 1C144.17 1 144.587 1.20864 144.921 1.5842C145.255 1.95975 145.422 2.41876 145.422 2.9195C145.422 3.46197 145.255 3.92098 144.921 4.25481C144.587 4.58863 144.212 4.79727 143.711 4.79727ZM142.417 23.2412V7.3427H145.004V23.2829H142.417V23.2412Z" fill="#686A6F"/>
  <path d="M149 23.2415V7.34306H151.379L151.545 8.59491C152.171 8.09417 152.964 7.71862 153.84 7.38479C154.717 7.0927 155.635 6.92578 156.595 6.92578C158.764 6.92578 160.308 7.46825 161.226 8.55319C162.144 9.63812 162.562 11.2238 162.562 13.3519V23.2833H159.975V13.2685C159.975 11.9332 159.682 10.89 159.057 10.1389C158.472 9.38775 157.471 9.0122 156.136 9.0122C155.301 9.0122 154.466 9.17911 153.632 9.55466C152.839 9.93022 152.13 10.3475 151.545 10.7648V23.2415H149Z" fill="#686A6F"/>
  <path d="M178.894 9.01068C179.311 9.46969 179.603 9.97044 179.854 10.5129C180.104 11.0971 180.229 11.723 180.229 12.4324C180.229 13.3504 180.021 14.185 179.645 14.8944C179.27 15.6038 178.727 16.188 178.101 16.647C177.475 17.106 176.724 17.4398 175.848 17.6902C175.013 17.8988 174.137 18.024 173.261 18.024C172.969 18.024 172.593 17.9823 172.176 17.9405C171.758 17.8988 171.383 17.8571 171.174 17.8154C170.799 17.8571 170.465 17.9823 170.173 18.1492C169.881 18.3578 169.714 18.6082 169.714 18.9003C169.714 19.2758 169.964 19.5262 170.507 19.6931C171.049 19.86 171.967 19.9435 173.344 19.9852C174.679 20.027 175.848 20.1104 176.891 20.2356C177.934 20.4025 178.769 20.6529 179.478 20.9867C180.188 21.3623 180.73 21.8213 181.106 22.4472C181.481 23.0731 181.648 23.8242 181.648 24.784C181.648 25.6603 181.439 26.4114 181.064 27.0373C180.647 27.6632 180.104 28.2057 179.437 28.6647C178.727 29.082 177.934 29.4158 177.016 29.6662C176.098 29.8748 175.138 30 174.095 30C171.55 30 169.547 29.6245 168.128 28.8316C166.709 28.0388 166 26.8287 166 25.1595C166 23.4487 166.793 22.1968 168.337 21.3623C167.92 21.1953 167.586 20.945 167.335 20.6112C167.085 20.3191 166.918 19.9018 166.918 19.401C166.918 18.7751 167.168 18.2744 167.627 17.8571C168.086 17.4398 168.712 17.1477 169.422 16.9808C169.171 16.8556 168.838 16.647 168.504 16.3966C168.17 16.1462 167.836 15.8541 167.544 15.4786C167.252 15.103 167.001 14.644 166.793 14.1433C166.584 13.6425 166.501 13.0583 166.501 12.3907C166.501 11.4727 166.709 10.6381 167.085 9.97044C167.46 9.26106 168.003 8.71858 168.629 8.25957C169.255 7.80056 170.006 7.46675 170.799 7.2581C171.592 7.04946 172.426 6.92428 173.302 6.92428C173.97 6.92428 174.638 6.96601 175.264 7.09119C175.89 7.21638 176.516 7.42502 177.1 7.67538L179.478 5.29688L181.106 6.79909L178.894 9.01068ZM173.302 22.1968C171.8 22.1551 170.799 22.0716 170.215 21.9882C169.63 22.2803 169.171 22.6558 168.796 23.1148C168.42 23.5739 168.253 24.1998 168.253 24.9092C168.253 25.4099 168.379 25.8689 168.671 26.2445C168.963 26.62 169.38 26.9539 169.881 27.2042C170.381 27.4546 171.007 27.6632 171.717 27.7884C172.426 27.9136 173.177 27.9971 174.054 27.9971C175.598 27.9971 176.849 27.705 177.809 27.1625C178.769 26.62 179.27 25.8689 179.27 24.9092C179.27 24.4502 179.186 24.0329 179.019 23.699C178.852 23.3652 178.518 23.0731 178.059 22.8645C177.6 22.6558 176.975 22.4889 176.223 22.3637C175.431 22.2803 174.471 22.1968 173.302 22.1968ZM169.297 13.7677C169.505 14.185 169.797 14.5606 170.131 14.8944C170.465 15.2282 170.924 15.4786 171.466 15.6872C171.967 15.8959 172.551 15.9793 173.219 15.9793C173.761 15.9793 174.262 15.9376 174.805 15.8124C175.347 15.6872 175.806 15.4786 176.223 15.2282C176.641 14.9361 177.016 14.5606 177.267 14.1015C177.517 13.6425 177.684 13.0583 177.684 12.3907C177.684 11.8482 177.559 11.3475 177.308 10.8885C177.058 10.4712 176.724 10.0956 176.349 9.80352C175.931 9.51142 175.472 9.30279 174.972 9.17761C174.429 9.05242 173.928 8.96896 173.344 8.96896C172.802 8.96896 172.301 9.05242 171.758 9.17761C171.216 9.30279 170.757 9.55315 170.381 9.80352C169.964 10.0956 169.672 10.4295 169.422 10.8885C169.171 11.3057 169.046 11.8482 169.046 12.3907C169.004 12.8914 169.13 13.3504 169.297 13.7677Z" fill="#686A6F"/>
</svg>