<svg xmlns="http://www.w3.org/2000/svg" viewBox="0 0 87 87" xmlns:v="https://vecta.io/nano"><path d="M43.5,0h0A43.51,43.51,0,0,1,87,43.5h0A43.51,43.51,0,0,1,43.5,87h0A43.51,43.51,0,0,1,0,43.5H0A43.51,43.51,0,0,1,43.5,0Z" fill="#494949"/><path d="M43.5,5.25h0A38.26,38.26,0,0,1,81.75,43.5h0A38.26,38.26,0,0,1,43.5,81.75h0A38.26,38.26,0,0,1,5.25,43.5h0A38.26,38.26,0,0,1,43.5,5.25Z" fill="#fff"/><path d="M23.72 44.33c.1 6.33 4.1 8.94 8.84 8.94a16.67 16.67 0 0 0 7.13-1.33l.8 3.36a20.58 20.58 0 0 1-8.57 1.7C24 57 19.24 51.67 19.24 44s4.58-13.9 12.14-13.9c8.37 0 10.6 7.35 10.6 12.09a10.15 10.15 0 0 1-.21 2.19zM37.46 41c0-2.93-1.23-7.56-6.5-7.56-4.74 0-6.82 4.31-7.19 7.56zm12.35-10.36l3.67 5.48 2.61 4.16h.11l2.61-4.21 3.57-5.43h5.11L58.7 43.05l9.06 13.31h-5.28l-3.83-5.75-2.77-4.53h-.11c-.85 1.6-1.75 2.93-2.71 4.53l-3.73 5.75h-5.16l9.16-13.15-8.74-12.57z" fill="#494949"/></svg>